<svg width="324" height="127" viewBox="0 0 324 127" fill="none" xmlns="http://www.w3.org/2000/svg">
<path d="M298.5 124V94.5L269 124H298.5Z" fill="white"/>
<path d="M173 3L61 3M16 115L16 53.5M298.5 94.5V16L38 16L3 51L3 124L269 124M298.5 94.5V124H269M298.5 94.5L269 124" stroke="#AFAFAF" stroke-width="6"/>
<path d="M20.5 38L16 33.5L33.5 16L38 20.5L20.5 38Z" fill="white"/>
<path d="M40.5 19H88.5V13H40.5V19Z" fill="white"/>
<path d="M33.5 16L38 20.5L39.5 19H40.5V13H36.5L33.5 16Z" fill="white"/>
<path d="M33.5 16L16 33.5L20.5 38L38 20.5M33.5 16L38 20.5M33.5 16L36.5 13H40.5M38 20.5L39.5 19H40.5M40.5 19H88.5V13H40.5M40.5 19V13" stroke="white"/>
<rect x="310" y="103" width="14" height="14" fill="white"/>
<rect x="309" y="65" width="14" height="14" fill="white"/>
<rect x="309" y="27" width="14" height="14" fill="white"/>
</svg>
