<svg width="314" height="468" viewBox="0 0 314 468" fill="none" xmlns="http://www.w3.org/2000/svg">
<mask id="path-1-inside-1_146_10" fill="white">
<path fill-rule="evenodd" clip-rule="evenodd" d="M0 95.094V468H203.247L314 357.247V23.9619L290.038 0H95.094L0 95.094Z"/>
</mask>
<path d="M0 468H-1V469H0V468ZM0 95.094L-0.707107 94.3869L-1 94.6798V95.094H0ZM203.247 468V469H203.661L203.954 468.707L203.247 468ZM314 357.247L314.707 357.954L315 357.661V357.247H314ZM314 23.9619H315V23.5477L314.707 23.2548L314 23.9619ZM290.038 0L290.745 -0.707107L290.452 -1H290.038V0ZM95.094 0V-1H94.6798L94.3869 -0.707107L95.094 0ZM1 468V95.094H-1V468H1ZM203.247 467H0V469H203.247V467ZM313.293 356.54L202.54 467.293L203.954 468.707L314.707 357.954L313.293 356.54ZM313 23.9619V357.247H315V23.9619H313ZM289.331 0.707107L313.293 24.669L314.707 23.2548L290.745 -0.707107L289.331 0.707107ZM95.094 1H290.038V-1H95.094V1ZM94.3869 -0.707107L-0.707107 94.3869L0.707107 95.8011L95.8011 0.707107L94.3869 -0.707107Z" fill="#FF0000" mask="url(#path-1-inside-1_146_10)"/>
</svg>
