<svg width="563" height="833" viewBox="0 0 563 833" fill="none" xmlns="http://www.w3.org/2000/svg">
<path fill-rule="evenodd" clip-rule="evenodd" d="M563 833H197.515L0 635.485V45.5147L45.5147 0H392.485L563 170.515V833ZM390 6L557 173V827H200L6 633V48L48 6H390Z" fill="white"/>
<path d="M557 801H266.5L184 718.5H125L6 599.5V633L200 827H557V801Z" fill="white" fill-opacity="0.99"/>
<path d="M524 140H495.5L412.5 57V28.5L524 140Z" fill="white" fill-opacity="0.99"/>
<path fill-rule="evenodd" clip-rule="evenodd" d="M412 27.293L525.207 140.5H495.293L412 57.2072V27.293ZM413 29.7072V56.793L495.707 139.5H522.793L413 29.7072ZM5.5 598.293L125.207 718H184.207L266.707 800.5H557.5V827.5H199.793L5.5 633.207V598.293ZM6.5 600.707V632.793L200.207 826.5H556.5V801.5H266.293L183.793 719H124.793L6.5 600.707Z" fill="white" fill-opacity="0.99"/>
<path d="M525 775H539V789H525V775Z" fill="white" fill-opacity="0.99"/>
<path d="M510 784H515V789H510V784Z" fill="white" fill-opacity="0.99"/>
<path d="M534 760H539V765H534V760Z" fill="white" fill-opacity="0.99"/>
<path d="M46 46H124V54H46V46Z" fill="white"/>
<path d="M46 59H70V67H46V59Z" fill="white"/>
<path d="M75 59H103V67H75V59Z" fill="white"/>
<path d="M115 72H124V80H115V72Z" fill="white"/>
<path d="M46 72H110V80H46V72Z" fill="white"/>
<path d="M46 85H62V93H46V85Z" fill="white"/>
<path d="M67 85H80V93H67V85Z" fill="white"/>
<path d="M85 85H103V93H85V85Z" fill="white"/>
<path d="M108 85H124V93H108V85Z" fill="white"/>
</svg>
