<svg width="424" height="785" viewBox="0 0 424 785" fill="none" xmlns="http://www.w3.org/2000/svg">
<path d="M309.588 784L341.237 752.35H372.888L423 702.237V641.575H404.537L359.7 686.412H335.963V712.787L306.95 741.799H222.55V762.9L209.362 776.087V784L309.588 784Z" fill="white"/>
<path d="M51.1125 0.662109L8.9125 42.8621H64.3L80.125 27.0371H193.538V0.662109H51.1125Z" fill="white"/>
<path d="M19.4625 784L198.812 784V772.131L212 758.943V736.525L202.769 727.293H196.175L175.075 706.193V699.6L171.119 695.643H19.4625V784Z" fill="white"/>
<path d="M6.275 615.2L19.4625 628.387V686.412H177.713L222.55 731.25H301.675L304.312 728.612V723.337L317.5 710.15H322.775L325.413 707.512V686.412H285.85L212 612.562H18L6.275 601V615.2Z" fill="white"/>
<path d="M423 61.0477L393.988 32.0352V0.662109H204.088V32.0352L244.969 71.8746H256.838L262.112 66.5996H312.225L317.5 71.8746H364.975L375.525 82.4246V99.5684H384.756L393.988 108.8H423V61.0477Z" fill="white"/>
<path d="M347.831 99.5684H366.294V87.6996L361.019 82.4246H242.331L197.494 37.5871H156.613L151.337 42.8621H98.5875L93.3125 37.5871H82.7625L66.9375 53.4121H1V79.7871H119.688L160.569 120.668H326.731L347.831 99.5684Z" fill="white"/>
<path d="M209.362 784L309.588 784L341.237 752.35H372.888L423 702.237V641.575M209.362 784V776.087L222.55 762.9V741.799H306.95L335.963 712.787V686.412H359.7L404.537 641.575H423M209.362 784H198.812M423 641.575V108.8M198.812 784L19.4625 784V695.643M198.812 784V772.131L212 758.943V736.525L202.769 727.293H196.175L175.075 706.193V699.6L171.119 695.643H19.4625M19.4625 695.643V686.412M6.275 601V530.8L27.375 509.7V274.962L1 248.587V79.7871M6.275 601V615.2L19.4625 628.387V686.412M6.275 601L18 612.562H212L285.85 686.412H325.413V707.512L322.775 710.15H317.5L304.312 723.337V728.612L301.675 731.25H222.55L177.713 686.412H19.4625M423 108.8V61.0477L393.988 32.0352V0.662109H204.088M423 108.8H393.988L384.756 99.5684H375.525V82.4246L364.975 71.8746H317.5L312.225 66.5996H262.112L256.838 71.8746H244.969L204.088 32.0352V0.662109M204.088 0.662109H193.538M1 79.7871H119.688L160.569 120.668H326.731L347.831 99.5684H366.294V87.6996L361.019 82.4246H242.331L197.494 37.5871H156.613L151.337 42.8621H98.5875L93.3125 37.5871H82.7625L66.9375 53.4121H1M1 79.7871V53.4121M1 53.4121V50.7746L8.9125 42.8621M8.9125 42.8621L51.1125 0.662109H193.538M8.9125 42.8621H64.3L80.125 27.0371H193.538V0.662109" stroke="white"/>
<rect x="81.4443" y="529.481" width="15.825" height="15.825" fill="white"/>
<rect x="371.568" y="587.506" width="13.1875" height="13.1875" fill="white"/>
<rect x="310.906" y="397.606" width="7.9125" height="7.9125" fill="white"/>
<rect x="168.481" y="363.318" width="7.9125" height="7.9125" fill="white"/>
<rect x="41.8818" y="255.181" width="5.275" height="5.275" fill="white"/>
<rect x="86.7188" y="89.0181" width="13.1875" height="13.1875" fill="white"/>
<rect x="86.7188" y="112.756" width="7.9125" height="7.9125" fill="white"/>
<path d="M95.9486 613V604.65L103.861 596.737H219.911L260.792 637.618H301.674L337.28 602.012V583.55L222.549 468.818H27.5M313.542 687V646.85L350.467 609.925V576.956L227.824 454.312H27M424 569.043H362.336L264.749 471.456V305.293L292.442 277.6H332.005L396.624 212.981V172.1L405.855 162.868H423.5M423.5 144.406H399.261L382.117 161.55V198.475L326.73 253.862H160.567L55.0674 148.362V79.5M40.5611 79.5V153.637L143.424 256.5V339.581L99.9049 383.1H56.3861L43.1986 369.912H27.5" stroke="white" stroke-width="3"/>
</svg>
