<svg width="346" height="651" viewBox="0 0 346 651" fill="none" xmlns="http://www.w3.org/2000/svg">
<path d="M107.13 650.345H249.242L263.454 636.133L249.242 621.922H122.434L107.13 637.227V650.345Z" fill="white"/>
<path d="M48.0985 621.922H10.9307V650.345H98.3845V635.04L120.248 613.177H250.335L268.373 631.214L277.665 621.922H304.994L345.441 581.475V512.605H323.578L314.833 503.86H221.913L193.49 532.282H139.925L135.552 536.655H100.571L96.1981 532.282H63.4029V606.618L48.0985 621.922Z" fill="white"/>
<path d="M325.764 503.86H345.441V342.07H308.274L227.379 422.965V429.524L231.752 433.897V460.133L227.379 464.505V495.114H317.019L325.764 503.86Z" fill="white"/>
<path d="M131.18 425.151L63.4029 492.928V523.537H191.304L218.633 496.207V420.778L306.087 333.325H312.646L317.019 328.952H333.417L337.789 333.325H345.441V285.225H279.851L174.907 390.17V414.219L163.975 425.151H131.18Z" fill="white"/>
<path d="M345.442 581.475L304.994 621.922H277.665M345.442 581.475V503.86M345.442 581.475V512.605H323.578L314.833 503.86H221.913L193.49 532.282H139.925L135.552 536.655H100.571L96.1981 532.282H63.4029V606.618L48.0985 621.922H10.9307V650.345H98.3845M277.665 621.922L263.454 636.133M277.665 621.922L268.373 631.214L250.335 613.177H120.248L98.3845 635.04V650.345M107.13 650.345H249.242L263.454 636.133M107.13 650.345V637.227L122.434 621.922H249.242L263.454 636.133M107.13 650.345H98.3845M345.442 503.86H325.764L317.019 495.114H227.379V464.505L231.752 460.133V433.897L227.379 429.524V422.965L308.274 342.07H345.442M345.442 503.86V342.07M345.442 342.07V333.325M345.442 333.325V285.225H279.851L174.907 390.17V414.219L163.975 425.151H131.18L63.4029 492.928V523.537H191.304L218.633 496.207V420.778L306.087 333.325H312.646L317.019 328.952H333.417L337.789 333.325H345.442Z" stroke="white"/>
<path d="M321 16H98.1362L86 4.0989V1H321V16Z" fill="white" stroke="white"/>
<rect x="15.7695" y="588.034" width="15.3044" height="15.3044" fill="white"/>
<rect x="9.21191" y="443.735" width="8.74538" height="8.74538" fill="white"/>
<rect x="153.511" y="321.299" width="6.55904" height="6.55904" fill="white"/>
<rect x="256.269" y="238.218" width="6.55904" height="6.55904" fill="white"/>
<rect x="328.417" y="159.51" width="8.74538" height="8.74538" fill="white"/>
<rect x="92.291" y="201.051" width="4.37269" height="4.37269" fill="white"/>
<rect x="133.831" y="26.1436" width="6.55904" height="6.55904" fill="white"/>
<rect x="216.913" y="21.77" width="6.55904" height="6.55904" fill="white"/>
<path d="M0 494.021H42.6337L51.3791 485.275L84.1743 452.48V433.896L121.342 396.728L182.56 335.511V300.529L122.435 240.405H84.1743L21.8635 178.094V148.578V73.1494L45.9132 49.0996V1M57.9382 1V57.845L33.8884 81.8948V112.504V173.721L88.547 228.38H123.529L196.771 155.137H265.641L289.691 179.187L345.443 178.094M345.443 189.026H284.225L266.734 171.535H240.498L213.169 198.864V251.337L231.753 269.92H345.443M345.443 95.0128H303.902L251.43 42.5406V16.5528" stroke="white" stroke-width="3"/>
</svg>
