<svg width="365" height="681" viewBox="0 0 365 681" fill="none" xmlns="http://www.w3.org/2000/svg">
<path d="M16.2039 675V678H19.2039H261.276H262.519L263.398 677.121L291.127 649.391H316.293H317.535L318.414 648.513L360.227 606.7L361.105 605.822V604.579V74.2204V72.9778L360.227 72.0991L334.697 46.5699V6V3H331.697H142.441H141.198L140.319 3.87868L131.517 12.6813L130.638 13.56V14.8026V18.4046H47.8125H46.5699L45.6912 19.2833L3.87868 61.0958L3 61.9745V63.2171V228.266V229.509L3.87868 230.388L22.8059 249.315V444.889L8.28 459.415L7.40132 460.294V461.536V536.359V537.601L8.28 538.48L16.2039 546.404V610.081V675Z" fill="#D9D9D9" stroke="white" stroke-width="6"/>
</svg>
