<svg width="355" height="671" viewBox="0 0 355 671" fill="none" xmlns="http://www.w3.org/2000/svg">
<path d="M127.706 670V663.444L136.445 654.702H180.137V586.954L215.09 551.987V510.463L105.861 401.191H20.6613V440.965L5.36919 456.263V532.318L14.1076 541.059L14.2407 577.315L53.4725 617.527V670H127.706Z" fill="white"/>
<path d="M326.624 1.09814H136.33L127.994 9.92529V16.3005H326.624V1.09814Z" fill="white"/>
<path d="M223.829 654.702L256.598 621.921H330.547L353.105 600.066V527.947H324.32L309.028 512.649H223.829V556.357L219.459 560.728V568.377L199.798 588.046H192.152L188.875 591.324V654.702H223.829Z" fill="white"/>
<path d="M326.505 519.205H353.105V431.787H309.028L298.105 420.86L182.321 305.032H20.6613V392.449H106.953L140.814 426.324H149.552L181.229 458.013V466.754L201.983 487.516L218.367 503.907H300.289H311.212L326.505 519.205Z" fill="white"/>
<path d="M354.086 68.773L326.624 42.2915V16.3005M127.994 16.3005V9.92529L136.33 1.09814H326.624V16.3005M127.994 16.3005H43.1742L1.4904 57.9842L1 226.356L20.6613 246.025V305.032M127.994 16.3005H326.624M353.105 527.947V600.066L330.547 621.921H256.598L223.829 654.702H188.875V591.324L192.152 588.046H199.798L219.459 568.377V560.728L223.829 556.357V512.649H309.028L324.32 527.947H353.105ZM353.105 527.947V519.205M20.6613 401.191V440.965L5.36919 456.263V532.318L14.1076 541.059L14.2407 577.315L53.4725 617.527V670H127.706V663.444L136.445 654.702H180.137V586.954L215.09 551.987V510.463L105.861 401.191H20.6613ZM20.6613 401.191V392.449M353.105 519.205H326.505L311.212 503.907H300.289H218.367L201.983 487.516L181.229 466.754V458.013L149.552 426.324H140.814L106.953 392.449H20.6613M353.105 519.205V431.787H309.028L298.105 420.86L182.321 305.032H20.6613M20.6613 392.449V305.032" stroke="white"/>
<rect x="109.933" y="30.709" width="6.60197" height="6.60197" fill="white"/>
<rect x="195.757" y="26.3076" width="8.80263" height="8.80263" fill="white"/>
<path d="M188.056 17.5049V52.7154L228.768 93.4276H254.076L310.192 37.3108H326.133M333.98 49.8344L326.697 57.1167H305.791L265.079 97.8289V129.738L287.085 151.745V191.357L221.066 257.377H89.0262M89.0262 257.377L34.0098 202.36V111.033L70.3206 74.722V16.791M89.0262 257.377V241.972L45.0131 197.959V117.635L81.3239 81.324V16.791M353.105 131.939H337.701L322.296 147.344V309.092L300.289 331.099V352.005L264.834 387.461" stroke="white" stroke-width="3"/>
</svg>
