<svg width="262" height="89" viewBox="0 0 262 89" fill="none" xmlns="http://www.w3.org/2000/svg">
<path d="M3 27.5V5.5H125M257.5 85.5V51.5L223.5 17.5H15V51.5L49 85.5H257.5Z" stroke="#AFAFAF" stroke-width="6"/>
<path d="M257.5 64V53V51.5L256.5 50.5L224.5 18.5L223.5 17.5H222H210" stroke="white" stroke-width="7"/>
<path d="M61.5 85.5H55H49.5H48.5L48 85L15.5 52.5L15 52V48V39" stroke="white" stroke-width="7"/>
<rect x="41" width="9" height="9" fill="white"/>
<rect x="54" width="9" height="9" fill="white"/>
<rect x="67" width="9" height="9" fill="white"/>
<rect x="80" width="9" height="9" fill="white"/>
<rect x="246" y="17" width="12" height="12" fill="#AFAFAF"/>
<path d="M252 32.0001H261V23M243 23V14H252" stroke="white" stroke-width="2"/>
</svg>
