<svg width="452" height="571" viewBox="0 0 452 571" fill="none" xmlns="http://www.w3.org/2000/svg">
<path d="M378.5 38L342.5 3H253.091M29.4545 326.636V486.636M444 293.909L407.636 257.545M444 275.727L407.636 239.364M444 257.545L407.636 221.182M444 239.364L407.636 203M444 221.182L407.636 184.818M444 203L407.636 166.636M444 184.818L407.636 148.455M444 166.636L407.636 130.273M444 148.455L407.636 112.091M444 130.273L407.636 93.9091M444 112.091L407.636 75.7273M444 21.1818H431.273M425.818 3V15.7273M425.818 26.6364V39.3636M420.364 21.1818H407.636M4 159.364V152.091M4 137.545V130.273M4 115.727V108.455M4 93.9091V86.6364M4 72.0909V64.8182M4 50.2727V43M4 28.4545V21.1818M44 519.364L91.2727 566.636H444L393.091 519.364V68.4545L338.545 13.9091H4V173.909V181.182V199.364L44 239.364V519.364Z" stroke="#AFAFAF" stroke-width="6"/>
<path d="M430.5 26.5H420.5V16H431V26.5H430.5Z" stroke="white" stroke-width="4"/>
<path d="M1 188.5H14V176.5H1V188.5Z" fill="white" stroke="white"/>
<path d="M1 167H14V155H1V167Z" fill="white" stroke="white"/>
<path d="M1 145H14V133H1V145Z" fill="white" stroke="white"/>
<path d="M1 123H14V111H1V123Z" fill="white" stroke="white"/>
<path d="M1 101H14V89H1V101Z" fill="white" stroke="white"/>
<path d="M1 79H14V67H1V79Z" fill="white" stroke="white"/>
<path d="M1 58H14V46H1V58Z" fill="white" stroke="white"/>
<path d="M1 36H14V24H1V36Z" fill="white" stroke="white"/>
<path d="M3 203.5L8 198.5L47.5 239L43 243.5L3 203.5Z" fill="white" stroke="white"/>
<path d="M389.454 563V570.273H171.272V563H389.454Z" fill="white" stroke="white"/>
<path d="M91.2726 563L51.2726 523L47.6362 526.636L87.6362 566.636L91.2726 563Z" fill="white" stroke="white"/>
<path d="M44 235.727L7.63636 199.364L4 203L40.3636 239.364L44 235.727Z" fill="white"/>
<path d="M40.3636 243H47.6364V239.364L44 235.727L40.3636 239.364V243Z" fill="white"/>
<path d="M40.3636 304.818H47.6364V243H40.3636V304.818Z" fill="white"/>
<path d="M40.3636 243V304.818H47.6364V243M40.3636 243H47.6364M40.3636 243V239.364M47.6364 243V239.364L44 235.727M44 235.727L7.63636 199.364L4 203L40.3636 239.364M44 235.727L40.3636 239.364" stroke="white"/>
<path d="M87 567.5L92 562.5L51.5 522L46.5 527L87 567.5Z" fill="white" stroke="white"/>
<path d="M444 548.5V312L407.5 275.5V513.5L444 548.5Z" fill="white" stroke="white" stroke-width="6"/>
</svg>
