<svg width="412" height="581" viewBox="0 0 412 581" fill="none" xmlns="http://www.w3.org/2000/svg">
<path d="M30.1161 35.2973H19.1972V24.3784H30.1161V35.2973Z" fill="#AFAFAF"/>
<path d="M401.377 9.81982V28.018L383.179 9.81982H401.377Z" fill="white"/>
<path d="M8.29611 93.5315L88.3681 13.4595M383.179 122.649V64.4144L346.782 28.018M401.377 28.018V9.81982H383.179M401.377 28.018V453.856L286.728 568.504M401.377 28.018L383.179 9.81982M383.179 9.81982H124.764L4.65646 129.928V577.603H273.99M259.431 559.405H22.8546V563.045H259.431M259.431 559.405V561.225V563.045M259.431 559.405L263.071 563.045M259.431 559.405H259.413M259.431 563.045H263.071M263.071 563.045L273.99 573.964V577.603M273.99 577.603H277.629L286.728 568.504M286.728 568.504L270.35 552.126M303.107 552.126L294.918 543.937L286.728 535.747M294.918 560.315L278.539 543.937M311.296 543.937L303.107 535.747L294.918 527.558M319.485 535.747L311.296 527.558L303.107 519.369M327.674 527.558L319.485 519.369L311.296 511.18M335.863 519.369L327.674 511.18L319.485 502.991M344.053 511.18L335.863 502.991L327.674 494.802M352.242 502.991L344.053 494.802L335.863 486.612M360.431 494.802L352.242 486.612L344.053 478.423M368.62 486.612L360.431 478.423L352.242 470.234M376.809 478.423L368.62 470.234L360.431 462.045M384.999 470.234L376.809 462.045L368.62 453.856M393.188 462.045L384.999 453.856L376.809 445.666M401.359 453.856L393.17 445.666L384.981 437.477M30.1161 35.2973H19.1972V24.3784H30.1161V35.2973Z" stroke="#AFAFAF" stroke-width="6"/>
<path d="M364 527.5L399.5 492" stroke="white" stroke-width="5"/>
<path d="M316 575.5L351.5 540" stroke="white" stroke-width="5"/>
<path d="M364 527.5V540H351.5V527.5H364Z" stroke="white" stroke-width="5"/>
<path d="M6 556H3V410H6V556Z" fill="white" stroke="white" stroke-width="6"/>
<path d="M400.004 337H403.004V185H400.004V337Z" fill="white" stroke="white" stroke-width="6"/>
<path d="M15.5577 38.937H33.7559V20.7388H15.5577V38.937Z" stroke="white" stroke-width="6"/>
<path d="M98.5039 40.5L125.457 13.5469L125.504 13.5L125.464 13.4605L121.004 9L94.0039 36L98.5039 40.5Z" fill="white"/>
<path d="M121.004 9L125.464 13.4605L125.504 13H126.004V6.5H123.504L121.004 9Z" fill="white"/>
<path d="M126.504 13H129.004H221.004V6.5H126.004V13H126.504Z" fill="white"/>
<path d="M121.004 9L94.0039 36L98.5039 40.5L125.457 13.5469M121.004 9L123.504 6.5H126.004M121.004 9L125.464 13.4605M126.004 6.5H221.004V13H129.004H126.504H126.004M126.004 6.5V13M126.004 6.5V13.5V13M126.004 13H125.504L125.464 13.4605M125.457 13.5469L125.504 13.5L125.464 13.4605M125.457 13.5469L125.464 13.4605" stroke="white"/>
<path d="M401.367 10.3426L401.308 28.3151L383.394 10.4013L401.367 10.3426Z" fill="white"/>
</svg>
